<svg xmlns="http://www.w3.org/2000/svg" version="1.1" xmlns:xlink="http://www.w3.org/1999/xlink" xmlns:svgjs="http://svgjs.dev/svgjs" width="1440" height="560" preserveAspectRatio="none" viewBox="0 0 1440 560"><g mask="url(&quot;#SvgjsMask1557&quot;)" fill="none"><rect width="1440" height="560" x="0" y="0" fill="#0e2a47"></rect><g mask="url(&quot;#SvgjsMask1559&quot;)"><path d="M36 276L60 252L84 252L108 252L132 252M228 276L252 252L276 252L300 252L324 252M12 276L36 252M-12 276L12 276L36 276L60 276L84 276L108 276L132 276L156 276L180 276L204 276L228 276L252 276L276 276" stroke="url(&quot;#SvgjsLinearGradient1558&quot;)" stroke-width="4"></path><path d="M270 276 a6 6 0 1 0 12 0 a6 6 0 1 0 -12 0zM126 252 a6 6 0 1 0 12 0 a6 6 0 1 0 -12 0zM318 252 a6 6 0 1 0 12 0 a6 6 0 1 0 -12 0zM30 252 a6 6 0 1 0 12 0 a6 6 0 1 0 -12 0z" fill="url(&quot;#SvgjsLinearGradient1558&quot;)"></path><path d="M252 300L276 324L300 324L324 324M372 276L396 300L420 300L444 324M324 300L348 300M420 276L444 276L468 276L492 276M468 300L492 324L516 324L540 324L564 324M-12 300L12 300L36 300L60 300L84 300L108 300L132 300L156 300L180 300L204 300L228 300L252 300L276 300L300 300L324 300L348 276L372 276L396 276L420 276L444 300L468 300L492 300" stroke="url(&quot;#SvgjsLinearGradient1558&quot;)" stroke-width="4"></path><path d="M486 300 a6 6 0 1 0 12 0 a6 6 0 1 0 -12 0zM318 324 a6 6 0 1 0 12 0 a6 6 0 1 0 -12 0zM438 324 a6 6 0 1 0 12 0 a6 6 0 1 0 -12 0zM342 300 a6 6 0 1 0 12 0 a6 6 0 1 0 -12 0zM486 276 a6 6 0 1 0 12 0 a6 6 0 1 0 -12 0zM558 324 a6 6 0 1 0 12 0 a6 6 0 1 0 -12 0z" fill="url(&quot;#SvgjsLinearGradient1558&quot;)"></path><path d="M204 324L228 324L252 324M300 348L324 372M276 348L300 372M-12 324L12 324L36 324L60 324L84 324L108 324L132 324L156 324L180 324L204 324L228 348L252 348L276 348L300 348L324 348" stroke="url(&quot;#SvgjsLinearGradient1558&quot;)" stroke-width="4"></path><path d="M318 348 a6 6 0 1 0 12 0 a6 6 0 1 0 -12 0zM246 324 a6 6 0 1 0 12 0 a6 6 0 1 0 -12 0zM318 372 a6 6 0 1 0 12 0 a6 6 0 1 0 -12 0zM294 372 a6 6 0 1 0 12 0 a6 6 0 1 0 -12 0z" fill="url(&quot;#SvgjsLinearGradient1558&quot;)"></path><path d="M348 228L372 252L396 252L420 252L444 252L468 252M468 228L492 228L516 228M204 228L228 252M516 252L540 276L564 276M180 228L204 252M156 228L180 252M-12 228L12 228L36 228L60 228L84 228L108 228L132 228L156 228L180 228L204 228L228 228L252 228L276 228L300 228L324 228L348 228L372 228L396 228L420 228L444 228L468 228L492 252L516 252L540 252" stroke="url(&quot;#SvgjsLinearGradient1558&quot;)" stroke-width="4"></path><path d="M534 252 a6 6 0 1 0 12 0 a6 6 0 1 0 -12 0zM462 252 a6 6 0 1 0 12 0 a6 6 0 1 0 -12 0zM510 228 a6 6 0 1 0 12 0 a6 6 0 1 0 -12 0zM222 252 a6 6 0 1 0 12 0 a6 6 0 1 0 -12 0zM558 276 a6 6 0 1 0 12 0 a6 6 0 1 0 -12 0zM198 252 a6 6 0 1 0 12 0 a6 6 0 1 0 -12 0zM174 252 a6 6 0 1 0 12 0 a6 6 0 1 0 -12 0z" fill="url(&quot;#SvgjsLinearGradient1558&quot;)"></path><path d="M-12 348L12 348L36 348" stroke="url(&quot;#SvgjsLinearGradient1558&quot;)" stroke-width="4"></path><path d="M30 348 a6 6 0 1 0 12 0 a6 6 0 1 0 -12 0z" fill="url(&quot;#SvgjsLinearGradient1558&quot;)"></path><path d="M-12 204L12 204L36 204L60 204L84 204L108 204L132 204" stroke="url(&quot;#SvgjsLinearGradient1558&quot;)" stroke-width="4"></path><path d="M126 204 a6 6 0 1 0 12 0 a6 6 0 1 0 -12 0z" fill="url(&quot;#SvgjsLinearGradient1558&quot;)"></path><path d="M108 348L132 372M420 396L444 372L468 348L492 348L516 372L540 372L564 372L588 372L612 372L636 372M396 396L420 372L444 348M252 372L276 372M-12 372L12 372L36 372L60 372L84 348L108 348L132 348L156 348L180 348L204 348L228 372L252 372L276 396L300 396L324 396L348 396L372 396L396 396L420 396L444 396L468 396L492 396L516 396" stroke="url(&quot;#SvgjsLinearGradient1558&quot;)" stroke-width="4"></path><path d="M510 396 a6 6 0 1 0 12 0 a6 6 0 1 0 -12 0zM126 372 a6 6 0 1 0 12 0 a6 6 0 1 0 -12 0zM630 372 a6 6 0 1 0 12 0 a6 6 0 1 0 -12 0zM438 348 a6 6 0 1 0 12 0 a6 6 0 1 0 -12 0zM270 372 a6 6 0 1 0 12 0 a6 6 0 1 0 -12 0z" fill="url(&quot;#SvgjsLinearGradient1558&quot;)"></path><path d="M276 204L300 180M468 204L492 180L516 180L540 180L564 180L588 180L612 204M60 180L84 156M180 180L204 204L228 204M372 204L396 180L420 180L444 180L468 180M204 180L228 156L252 156L276 156L300 156M-12 180L12 180L36 180L60 180L84 180L108 180L132 180L156 180L180 180L204 180L228 180L252 204L276 204L300 204L324 204L348 204L372 204L396 204L420 204L444 204L468 204L492 204L516 204L540 204" stroke="url(&quot;#SvgjsLinearGradient1558&quot;)" stroke-width="4"></path><path d="M534 204 a6 6 0 1 0 12 0 a6 6 0 1 0 -12 0zM294 180 a6 6 0 1 0 12 0 a6 6 0 1 0 -12 0zM606 204 a6 6 0 1 0 12 0 a6 6 0 1 0 -12 0zM78 156 a6 6 0 1 0 12 0 a6 6 0 1 0 -12 0zM222 204 a6 6 0 1 0 12 0 a6 6 0 1 0 -12 0zM462 180 a6 6 0 1 0 12 0 a6 6 0 1 0 -12 0zM294 156 a6 6 0 1 0 12 0 a6 6 0 1 0 -12 0z" fill="url(&quot;#SvgjsLinearGradient1558&quot;)"></path><path d="M468 420L492 444M180 372L204 396M420 420L444 444L468 444L492 468M84 396L108 372M228 396L252 420L276 444M372 420L396 444L420 444M-12 396L12 396L36 396L60 396L84 396L108 396L132 396L156 372L180 372L204 372L228 396L252 396L276 420L300 420L324 420L348 420L372 420L396 420L420 420L444 420L468 420L492 420L516 420L540 420" stroke="url(&quot;#SvgjsLinearGradient1558&quot;)" stroke-width="4"></path><path d="M534 420 a6 6 0 1 0 12 0 a6 6 0 1 0 -12 0zM486 444 a6 6 0 1 0 12 0 a6 6 0 1 0 -12 0zM198 396 a6 6 0 1 0 12 0 a6 6 0 1 0 -12 0zM486 468 a6 6 0 1 0 12 0 a6 6 0 1 0 -12 0zM102 372 a6 6 0 1 0 12 0 a6 6 0 1 0 -12 0zM270 444 a6 6 0 1 0 12 0 a6 6 0 1 0 -12 0zM414 444 a6 6 0 1 0 12 0 a6 6 0 1 0 -12 0z" fill="url(&quot;#SvgjsLinearGradient1558&quot;)"></path><path d="M-12 156L12 156" stroke="url(&quot;#SvgjsLinearGradient1558&quot;)" stroke-width="4"></path><path d="M6 156 a6 6 0 1 0 12 0 a6 6 0 1 0 -12 0z" fill="url(&quot;#SvgjsLinearGradient1558&quot;)"></path></g></g><defs><mask id="SvgjsMask1557"><rect width="1440" height="560" fill="#ffffff"></rect></mask><linearGradient x1="0" y1="280" x2="691.2" y2="280" gradientUnits="userSpaceOnUse" id="SvgjsLinearGradient1558"><stop stop-color="#3a7cc3" offset="0"></stop><stop stop-color="rgba(51, 52, 70, 1)" offset="1"></stop></linearGradient><mask id="SvgjsMask1559"><rect width="1440" height="560" fill="white"></rect><path d="M273 276 a3 3 0 1 0 6 0 a3 3 0 1 0 -6 0zM129 252 a3 3 0 1 0 6 0 a3 3 0 1 0 -6 0zM321 252 a3 3 0 1 0 6 0 a3 3 0 1 0 -6 0zM33 252 a3 3 0 1 0 6 0 a3 3 0 1 0 -6 0z" fill="black"></path><path d="M489 300 a3 3 0 1 0 6 0 a3 3 0 1 0 -6 0zM321 324 a3 3 0 1 0 6 0 a3 3 0 1 0 -6 0zM441 324 a3 3 0 1 0 6 0 a3 3 0 1 0 -6 0zM345 300 a3 3 0 1 0 6 0 a3 3 0 1 0 -6 0zM489 276 a3 3 0 1 0 6 0 a3 3 0 1 0 -6 0zM561 324 a3 3 0 1 0 6 0 a3 3 0 1 0 -6 0z" fill="black"></path><path d="M321 348 a3 3 0 1 0 6 0 a3 3 0 1 0 -6 0zM249 324 a3 3 0 1 0 6 0 a3 3 0 1 0 -6 0zM321 372 a3 3 0 1 0 6 0 a3 3 0 1 0 -6 0zM297 372 a3 3 0 1 0 6 0 a3 3 0 1 0 -6 0z" fill="black"></path><path d="M537 252 a3 3 0 1 0 6 0 a3 3 0 1 0 -6 0zM465 252 a3 3 0 1 0 6 0 a3 3 0 1 0 -6 0zM513 228 a3 3 0 1 0 6 0 a3 3 0 1 0 -6 0zM225 252 a3 3 0 1 0 6 0 a3 3 0 1 0 -6 0zM561 276 a3 3 0 1 0 6 0 a3 3 0 1 0 -6 0zM201 252 a3 3 0 1 0 6 0 a3 3 0 1 0 -6 0zM177 252 a3 3 0 1 0 6 0 a3 3 0 1 0 -6 0z" fill="black"></path><path d="M33 348 a3 3 0 1 0 6 0 a3 3 0 1 0 -6 0z" fill="black"></path><path d="M129 204 a3 3 0 1 0 6 0 a3 3 0 1 0 -6 0z" fill="black"></path><path d="M513 396 a3 3 0 1 0 6 0 a3 3 0 1 0 -6 0zM129 372 a3 3 0 1 0 6 0 a3 3 0 1 0 -6 0zM633 372 a3 3 0 1 0 6 0 a3 3 0 1 0 -6 0zM441 348 a3 3 0 1 0 6 0 a3 3 0 1 0 -6 0zM273 372 a3 3 0 1 0 6 0 a3 3 0 1 0 -6 0z" fill="black"></path><path d="M537 204 a3 3 0 1 0 6 0 a3 3 0 1 0 -6 0zM297 180 a3 3 0 1 0 6 0 a3 3 0 1 0 -6 0zM609 204 a3 3 0 1 0 6 0 a3 3 0 1 0 -6 0zM81 156 a3 3 0 1 0 6 0 a3 3 0 1 0 -6 0zM225 204 a3 3 0 1 0 6 0 a3 3 0 1 0 -6 0zM465 180 a3 3 0 1 0 6 0 a3 3 0 1 0 -6 0zM297 156 a3 3 0 1 0 6 0 a3 3 0 1 0 -6 0z" fill="black"></path><path d="M537 420 a3 3 0 1 0 6 0 a3 3 0 1 0 -6 0zM489 444 a3 3 0 1 0 6 0 a3 3 0 1 0 -6 0zM201 396 a3 3 0 1 0 6 0 a3 3 0 1 0 -6 0zM489 468 a3 3 0 1 0 6 0 a3 3 0 1 0 -6 0zM105 372 a3 3 0 1 0 6 0 a3 3 0 1 0 -6 0zM273 444 a3 3 0 1 0 6 0 a3 3 0 1 0 -6 0zM417 444 a3 3 0 1 0 6 0 a3 3 0 1 0 -6 0z" fill="black"></path><path d="M9 156 a3 3 0 1 0 6 0 a3 3 0 1 0 -6 0z" fill="black"></path></mask></defs></svg>